<?xml version="1.0" encoding="UTF-8"?>
<svg id="Calque_2" data-name="Calque 2" xmlns="http://www.w3.org/2000/svg" viewBox="0 0 517.58 516.86">
  <defs>
    <style>
      .cls-1 {
        fill: #dd0a00;
      }
    </style>
  </defs>
  <g id="Calque_1-2" data-name="Calque 1">
    <g>
      <path d="M334.41,311.7c-16.77,23.98-44.47,39.6-75.65,39.6-50.06,0-91.18-40.29-92.45-90.78-.03-.81-.03-1.61-.03-2.42,0-.89,0-1.76.03-2.65,1.41-49.68,42.48-89.83,92.45-89.83,30.2,0,57.12,14.64,74.04,37.18-7.46,15.04-11.67,32.77-11.67,52.8,0,21.12,4.9,40.06,13.29,56.11Z"/>
      <path class="cls-1" d="M503.2,173.11c-26.11-74.7-85.71-133.69-160.72-159.28-26.28-8.96-54.44-13.83-83.72-13.83C116.14,0,0,115.42,0,258.1s116.14,258.76,258.76,258.76c29.22,0,57.32-4.84,83.55-13.78,77.09-26.25,137.93-87.84,162.91-165.71,1.38-4.27,2.65-8.59,3.8-12.97,4.5-17.06,7.32-34.78,8.21-53.03.23-4.41.35-8.85.35-13.29,0-29.8-5.07-58.39-14.38-84.99ZM166.28,258.1c0-.89,0-1.76.03-2.65,1.41-49.68,42.48-89.83,92.45-89.83,30.2,0,57.12,14.64,74.04,37.18,11.56,15.45,18.44,34.61,18.44,55.3s-6.22,38.47-16.83,53.6c-16.77,23.98-44.47,39.6-75.65,39.6-50.06,0-91.18-40.29-92.45-90.78-.03-.81-.03-1.61-.03-2.42Z"/>
    </g>
  </g>
</svg>